<?xml version="1.0" encoding="UTF-8" standalone="no"?>
<!-- Created with Inkscape (http://www.inkscape.org/) -->

<svg
   xmlns:dc="http://purl.org/dc/elements/1.1/"
   xmlns:cc="http://creativecommons.org/ns#"
   xmlns:rdf="http://www.w3.org/1999/02/22-rdf-syntax-ns#"
   xmlns:svg="http://www.w3.org/2000/svg"
   xmlns="http://www.w3.org/2000/svg"
   xmlns:sodipodi="http://sodipodi.sourceforge.net/DTD/sodipodi-0.dtd"
   xmlns:inkscape="http://www.inkscape.org/namespaces/inkscape"
   width="210mm"
   height="297mm"
   viewBox="0 0 744.09448819 1052.3622047"
   id="svg2"
   version="1.1"
   inkscape:version="0.91 r13725"
   sodipodi:docname="fixed_truck_route_variant.svg">
  <defs
     id="defs4" />
  <sodipodi:namedview
     id="base"
     pagecolor="#ffffff"
     bordercolor="#666666"
     borderopacity="1.0"
     inkscape:pageopacity="0.0"
     inkscape:pageshadow="2"
     inkscape:zoom="1.8727282"
     inkscape:cx="333.07657"
     inkscape:cy="626.05519"
     inkscape:document-units="px"
     inkscape:current-layer="layer1"
     showgrid="false"
     inkscape:window-width="1278"
     inkscape:window-height="1022"
     inkscape:window-x="0"
     inkscape:window-y="0"
     inkscape:window-maximized="0" />
  <metadata
     id="metadata7">
    <rdf:RDF>
      <cc:Work
         rdf:about="">
        <dc:format>image/svg+xml</dc:format>
        <dc:type
           rdf:resource="http://purl.org/dc/dcmitype/StillImage" />
        <dc:title></dc:title>
      </cc:Work>
    </rdf:RDF>
  </metadata>
  <g
     inkscape:label="Layer 1"
     inkscape:groupmode="layer"
     id="layer1">
    <g
       id="g5391">
      <g
         id="g5447"
         transform="matrix(1.4159317,0,0,1.4159317,-136.85979,-229.90765)">
        <circle
           style="fill:#000000;fill-opacity:1;stroke:#f60000;stroke-width:0.54313129;stroke-miterlimit:4;stroke-dasharray:none;stroke-dashoffset:0;stroke-opacity:1"
           id="path3342-6"
           cx="342.87787"
           cy="407.74252"
           r="6.4058881" />
        <circle
           style="fill:#000000;fill-opacity:1;stroke:#f60000;stroke-width:0.54313129;stroke-miterlimit:4;stroke-dasharray:none;stroke-dashoffset:0;stroke-opacity:1"
           id="path3342-7"
           cx="350.71429"
           cy="451.64792"
           r="6.4058881" />
        <circle
           style="fill:#000000;fill-opacity:1;stroke:#73bf00;stroke-width:0.54313129;stroke-miterlimit:4;stroke-dasharray:none;stroke-dashoffset:0;stroke-opacity:1"
           id="path3342-1"
           cx="483.32382"
           cy="543.68164"
           r="6.4058881" />
        <path
           style="fill:none;fill-rule:evenodd;stroke:#d40000;stroke-width:2.9000001;stroke-linecap:butt;stroke-linejoin:miter;stroke-miterlimit:4;stroke-dasharray:none;stroke-dashoffset:0;stroke-opacity:1"
           d="m 214.38116,340.77014 -2.50361,-10.52797 20.44158,79.79483 58.30526,29.74708 L 265,485.21935 l 41.26656,44.26958 -30.13445,51.22442 66.89806,-8.74309 9.41535,-31.80618 51.54807,-2.10587 L 450,497.3622 l -88.37951,0.001 38.59093,-62.52541 -28.74221,-13.20672 40.42412,-24.82203"
           id="path4235"
           inkscape:connector-curvature="0"
           sodipodi:nodetypes="ccccccccccccccc" />
        <path
           style="fill:none;fill-rule:evenodd;stroke:#009900;stroke-width:2.50500011;stroke-linecap:butt;stroke-linejoin:miter;stroke-miterlimit:4;stroke-dasharray:2.505, 2.505;stroke-dashoffset:0;stroke-opacity:1"
           d="m 206.35965,346.04893 -41.59092,48.66518 63.36283,1.62125"
           id="path4237"
           inkscape:connector-curvature="0"
           sodipodi:nodetypes="ccc" />
        <path
           style="fill:none;fill-rule:evenodd;stroke:#008900;stroke-width:2.50500011;stroke-linecap:butt;stroke-linejoin:miter;stroke-miterlimit:4;stroke-dasharray:2.505, 2.505;stroke-dashoffset:0;stroke-opacity:1"
           d="m 258.97536,423.53482 78.00003,-14.21941 -71.79971,76.10153"
           id="path4239"
           inkscape:connector-curvature="0"
           sodipodi:nodetypes="ccc" />
        <path
           style="fill:none;fill-rule:evenodd;stroke:#008900;stroke-width:2.50500011;stroke-linecap:butt;stroke-linejoin:miter;stroke-miterlimit:4;stroke-dasharray:2.505, 2.505;stroke-dashoffset:0;stroke-opacity:1"
           d="m 405.86338,538.38049 4.04616,-67.93984 -85.27493,100.38028"
           id="path4243"
           inkscape:connector-curvature="0"
           sodipodi:nodetypes="ccc" />
        <path
           style="fill:none;fill-rule:evenodd;stroke:#008900;stroke-width:2.50500011;stroke-linecap:butt;stroke-linejoin:miter;stroke-miterlimit:4;stroke-dasharray:2.505, 2.505;stroke-dashoffset:0;stroke-opacity:1"
           d="m 265.63659,484.85845 81.74774,-27.05733 -24.84261,115.19304"
           id="path4251"
           inkscape:connector-curvature="0"
           sodipodi:nodetypes="ccc" />
        <circle
           style="fill:#000000;fill-opacity:1;stroke:#f60000;stroke-width:0.54313129;stroke-miterlimit:4;stroke-dasharray:none;stroke-dashoffset:0;stroke-opacity:1"
           id="path3342-62-6"
           cx="265.16342"
           cy="356.84128"
           r="6.4058881" />
        <circle
           style="fill:#000000;fill-opacity:1;stroke:#f60000;stroke-width:0.54313129;stroke-miterlimit:4;stroke-dasharray:none;stroke-dashoffset:0;stroke-opacity:1"
           id="path3342-62-61"
           cx="159.21147"
           cy="396.76352"
           r="6.4058881" />
        <circle
           style="fill:#000000;fill-opacity:1;stroke:#f60000;stroke-width:0.54313129;stroke-miterlimit:4;stroke-dasharray:none;stroke-dashoffset:0;stroke-opacity:1"
           id="path3342-62-7"
           cx="412.14285"
           cy="463.07648"
           r="6.4058881" />
        <path
           style="fill:none;fill-rule:evenodd;stroke:#009900;stroke-width:2.50500011;stroke-linecap:butt;stroke-linejoin:miter;stroke-miterlimit:4;stroke-dasharray:2.50500011, 2.50500011;stroke-dashoffset:0;stroke-opacity:1"
           d="m 258.89824,422.06001 3.7551,-59.9562 -33.00667,34.75354"
           id="path5129"
           inkscape:connector-curvature="0"
           sodipodi:nodetypes="ccc" />
        <path
           sodipodi:type="star"
           style="fill:#000000;fill-opacity:1;stroke:#008900;stroke-width:0;stroke-miterlimit:4;stroke-dasharray:none;stroke-dashoffset:0;stroke-opacity:1"
           id="path5299-32"
           sodipodi:sides="3"
           sodipodi:cx="608.57141"
           sodipodi:cy="139.50507"
           sodipodi:r1="18.294641"
           sodipodi:r2="9.1473207"
           sodipodi:arg1="0.89605538"
           sodipodi:arg2="1.9432529"
           inkscape:flatsided="false"
           inkscape:rounded="0"
           inkscape:randomized="0"
           d="m 619.99998,153.79078 -14.75732,-5.76557 -14.75733,-5.76557 12.37179,-9.89743 12.3718,-9.89744 2.38553,15.66301 z"
           inkscape:transform-center-x="-2.66302"
           inkscape:transform-center-y="2.0483262"
           transform="matrix(0.20631825,0.17535638,-0.36796426,0.16385838,264.65723,330.6358)" />
        <path
           sodipodi:type="star"
           style="fill:#000000;fill-opacity:1;stroke:#008900;stroke-width:0;stroke-miterlimit:4;stroke-dasharray:none;stroke-dashoffset:0;stroke-opacity:1"
           id="path5299-5"
           sodipodi:sides="3"
           sodipodi:cx="608.57141"
           sodipodi:cy="139.50507"
           sodipodi:r1="18.294641"
           sodipodi:r2="9.1473207"
           sodipodi:arg1="0.89605538"
           sodipodi:arg2="1.9432529"
           inkscape:flatsided="false"
           inkscape:rounded="0"
           inkscape:randomized="0"
           d="m 619.99998,153.79078 -14.75732,-5.76557 -14.75733,-5.76557 12.37179,-9.89743 12.3718,-9.89744 2.38553,15.66301 z"
           inkscape:transform-center-x="-7.3054635"
           inkscape:transform-center-y="-11.389011"
           transform="matrix(-0.26928635,-0.02831857,0.21128308,-0.34293836,305.31617,452.59435)" />
        <path
           style="fill:none;fill-rule:evenodd;stroke:#008900;stroke-width:2.50500011;stroke-linecap:butt;stroke-linejoin:miter;stroke-miterlimit:4;stroke-dasharray:2.505, 2.505;stroke-dashoffset:0;stroke-opacity:1"
           d="m 450.90579,500.32706 26.81906,40.19405 -71.26095,-0.93931"
           id="path4239-3"
           inkscape:connector-curvature="0"
           sodipodi:nodetypes="ccc" />
        <path
           sodipodi:type="star"
           style="fill:#000000;fill-opacity:1;stroke:#008900;stroke-width:0;stroke-miterlimit:4;stroke-dasharray:none;stroke-dashoffset:0;stroke-opacity:1"
           id="path5299-5-6"
           sodipodi:sides="3"
           sodipodi:cx="608.57141"
           sodipodi:cy="139.50507"
           sodipodi:r1="18.294641"
           sodipodi:r2="9.1473207"
           sodipodi:arg1="0.89605538"
           sodipodi:arg2="1.9432529"
           inkscape:flatsided="false"
           inkscape:rounded="0"
           inkscape:randomized="0"
           d="m 619.99998,153.79078 -14.75732,-5.76557 -14.75733,-5.76557 12.37179,-9.89743 12.3718,-9.89744 2.38553,15.66301 z"
           inkscape:transform-center-x="11.114101"
           inkscape:transform-center-y="0.73482012"
           transform="matrix(0.14109885,0.23110213,-0.40075692,0.04051115,189.57327,249.24768)" />
        <path
           sodipodi:type="star"
           style="fill:#000000;fill-opacity:1;stroke:#008900;stroke-width:0;stroke-miterlimit:4;stroke-dasharray:none;stroke-dashoffset:0;stroke-opacity:1"
           id="path5299-5-6-7"
           sodipodi:sides="3"
           sodipodi:cx="608.57141"
           sodipodi:cy="139.50507"
           sodipodi:r1="18.294641"
           sodipodi:r2="9.1473207"
           sodipodi:arg1="0.89605538"
           sodipodi:arg2="1.9432529"
           inkscape:flatsided="false"
           inkscape:rounded="0"
           inkscape:randomized="0"
           d="m 619.99998,153.79078 -14.75732,-5.76557 -14.75733,-5.76557 12.37179,-9.89743 12.3718,-9.89744 2.38553,15.66301 z"
           inkscape:transform-center-x="8.1441422"
           inkscape:transform-center-y="10.943392"
           transform="matrix(0.26451076,0.05788901,-0.24786917,0.31750298,130.76729,288.06031)" />
        <path
           sodipodi:type="star"
           style="fill:#000000;fill-opacity:1;stroke:#008900;stroke-width:0;stroke-miterlimit:4;stroke-dasharray:none;stroke-dashoffset:0;stroke-opacity:1"
           id="path5299-5-6-7-5"
           sodipodi:sides="3"
           sodipodi:cx="608.57141"
           sodipodi:cy="139.50507"
           sodipodi:r1="18.294641"
           sodipodi:r2="9.1473207"
           sodipodi:arg1="0.89605538"
           sodipodi:arg2="1.9432529"
           inkscape:flatsided="false"
           inkscape:rounded="0"
           inkscape:randomized="0"
           d="m 619.99998,153.79078 -14.75732,-5.76557 -14.75733,-5.76557 12.37179,-9.89743 12.3718,-9.89744 2.38553,15.66301 z"
           inkscape:transform-center-x="1.6635605"
           inkscape:transform-center-y="-10.896988"
           transform="matrix(-0.22400034,0.15212144,-0.05986494,-0.39832582,404.90785,376.00695)" />
        <path
           sodipodi:type="star"
           style="fill:#000000;fill-opacity:1;stroke:#008900;stroke-width:0;stroke-miterlimit:4;stroke-dasharray:none;stroke-dashoffset:0;stroke-opacity:1"
           id="path5299-32-3"
           sodipodi:sides="3"
           sodipodi:cx="608.57141"
           sodipodi:cy="139.50507"
           sodipodi:r1="18.294641"
           sodipodi:r2="9.1473207"
           sodipodi:arg1="0.89605538"
           sodipodi:arg2="1.9432529"
           inkscape:flatsided="false"
           inkscape:rounded="0"
           inkscape:randomized="0"
           d="m 619.99998,153.79078 -14.75732,-5.76557 -14.75733,-5.76557 12.37179,-9.89743 12.3718,-9.89744 2.38553,15.66301 z"
           inkscape:transform-center-x="-15.069257"
           inkscape:transform-center-y="-11.976115"
           transform="matrix(0.20631825,0.17535638,-0.36796426,0.16385838,252.98079,280.73783)" />
        <path
           sodipodi:type="star"
           style="fill:#000000;fill-opacity:1;stroke:#008900;stroke-width:0;stroke-miterlimit:4;stroke-dasharray:none;stroke-dashoffset:0;stroke-opacity:1"
           id="path5299-32-5"
           sodipodi:sides="3"
           sodipodi:cx="608.57141"
           sodipodi:cy="139.50507"
           sodipodi:r1="18.294641"
           sodipodi:r2="9.1473207"
           sodipodi:arg1="0.89605538"
           sodipodi:arg2="1.9432529"
           inkscape:flatsided="false"
           inkscape:rounded="0"
           inkscape:randomized="0"
           d="m 619.99998,153.79078 -14.75732,-5.76557 -14.75733,-5.76557 12.37179,-9.89743 12.3718,-9.89744 2.38553,15.66301 z"
           inkscape:transform-center-x="16.779078"
           inkscape:transform-center-y="8.3236992"
           transform="matrix(-0.26457477,-0.05759577,0.24751706,-0.31777755,397.47417,559.59535)" />
        <path
           sodipodi:type="star"
           style="fill:#000000;fill-opacity:1;stroke:#008900;stroke-width:0;stroke-miterlimit:4;stroke-dasharray:none;stroke-dashoffset:0;stroke-opacity:1"
           id="path5299-32-6"
           sodipodi:sides="3"
           sodipodi:cx="608.57141"
           sodipodi:cy="139.50507"
           sodipodi:r1="18.294641"
           sodipodi:r2="9.1473207"
           sodipodi:arg1="0.89605538"
           sodipodi:arg2="1.9432529"
           inkscape:flatsided="false"
           inkscape:rounded="0"
           inkscape:randomized="0"
           d="m 619.99998,153.79078 -14.75732,-5.76557 -14.75733,-5.76557 12.37179,-9.89743 12.3718,-9.89744 2.38553,15.66301 z"
           inkscape:transform-center-x="-0.15263499"
           inkscape:transform-center-y="2.4208703"
           transform="matrix(-0.24569028,0.11381286,0.00547283,-0.40276211,473.44248,552.91965)" />
        <path
           sodipodi:type="star"
           style="fill:#000000;fill-opacity:1;stroke:#008900;stroke-width:0;stroke-miterlimit:4;stroke-dasharray:none;stroke-dashoffset:0;stroke-opacity:1"
           id="path5299-32-2"
           sodipodi:sides="3"
           sodipodi:cx="608.57141"
           sodipodi:cy="139.50507"
           sodipodi:r1="18.294641"
           sodipodi:r2="9.1473207"
           sodipodi:arg1="0.89605538"
           sodipodi:arg2="1.9432529"
           inkscape:flatsided="false"
           inkscape:rounded="0"
           inkscape:randomized="0"
           d="m 619.99998,153.79078 -14.75732,-5.76557 -14.75733,-5.76557 12.37179,-9.89743 12.3718,-9.89744 2.38553,15.66301 z"
           inkscape:transform-center-x="-1.1124619"
           inkscape:transform-center-y="0.30316606"
           transform="matrix(0.26779198,0.04005667,-0.22606436,0.33337992,273.1999,404.62477)" />
        <path
           sodipodi:type="star"
           style="fill:#000000;fill-opacity:1;stroke:#008900;stroke-width:0;stroke-miterlimit:4;stroke-dasharray:none;stroke-dashoffset:0;stroke-opacity:1"
           id="path5299-32-9"
           sodipodi:sides="3"
           sodipodi:cx="608.57141"
           sodipodi:cy="139.50507"
           sodipodi:r1="18.294641"
           sodipodi:r2="9.1473207"
           sodipodi:arg1="0.89605538"
           sodipodi:arg2="1.9432529"
           inkscape:flatsided="false"
           inkscape:rounded="0"
           inkscape:randomized="0"
           d="m 619.99998,153.79078 -14.75732,-5.76557 -14.75733,-5.76557 12.37179,-9.89743 12.3718,-9.89744 2.38553,15.66301 z"
           inkscape:transform-center-x="0.89235233"
           inkscape:transform-center-y="3.091656"
           transform="matrix(-0.21801149,0.16058664,-0.07507254,-0.39574156,549.14311,484.49448)" />
        <path
           sodipodi:type="star"
           style="fill:#000000;fill-opacity:1;stroke:#008900;stroke-width:0;stroke-miterlimit:4;stroke-dasharray:none;stroke-dashoffset:0;stroke-opacity:1"
           id="path5299-32-1"
           sodipodi:sides="3"
           sodipodi:cx="608.57141"
           sodipodi:cy="139.50507"
           sodipodi:r1="18.294641"
           sodipodi:r2="9.1473207"
           sodipodi:arg1="0.89605538"
           sodipodi:arg2="1.9432529"
           inkscape:flatsided="false"
           inkscape:rounded="0"
           inkscape:randomized="0"
           d="m 619.99998,153.79078 -14.75732,-5.76557 -14.75733,-5.76557 12.37179,-9.89743 12.3718,-9.89744 2.38553,15.66301 z"
           inkscape:transform-center-x="-3.0247076"
           inkscape:transform-center-y="0.62763139"
           transform="matrix(0.14920277,0.22595489,-0.3990689,0.05469258,432.1829,395.18761)" />
        <path
           sodipodi:type="star"
           style="fill:#000000;fill-opacity:1;stroke:#008900;stroke-width:0;stroke-miterlimit:4;stroke-dasharray:none;stroke-dashoffset:0;stroke-opacity:1"
           id="path5299-32-27"
           sodipodi:sides="3"
           sodipodi:cx="608.57141"
           sodipodi:cy="139.50507"
           sodipodi:r1="18.294641"
           sodipodi:r2="9.1473207"
           sodipodi:arg1="0.89605538"
           sodipodi:arg2="1.9432529"
           inkscape:flatsided="false"
           inkscape:rounded="0"
           inkscape:randomized="0"
           d="m 619.99998,153.79078 -14.75732,-5.76557 -14.75733,-5.76557 12.37179,-9.89743 12.3718,-9.89744 2.38553,15.66301 z"
           inkscape:transform-center-x="2.4272572"
           inkscape:transform-center-y="-16.35724"
           transform="matrix(0.10318289,-0.25034051,0.26934859,0.29949725,353.44133,615.60174)" />
        <rect
           style="fill:#dd005a;fill-opacity:1;stroke:#0f0000;stroke-width:0.69384199;stroke-miterlimit:4;stroke-dasharray:none;stroke-dashoffset:0;stroke-opacity:1"
           id="rect4255-37-9"
           width="8.5855074"
           height="7.761044"
           x="225.20291"
           y="393.33859" />
        <rect
           style="fill:#dd005a;fill-opacity:1;stroke:#0f0000;stroke-width:0.69384199;stroke-miterlimit:4;stroke-dasharray:none;stroke-dashoffset:0;stroke-opacity:1"
           id="rect4255-37-3"
           width="8.5855074"
           height="7.761044"
           x="253.66833"
           y="420.30585" />
        <rect
           style="fill:#dd005a;fill-opacity:1;stroke:#0f0000;stroke-width:0.69384199;stroke-miterlimit:4;stroke-dasharray:none;stroke-dashoffset:0;stroke-opacity:1"
           id="rect4255-37-6"
           width="8.5855074"
           height="7.761044"
           x="257.16409"
           y="484.22818" />
        <rect
           style="fill:#dd005a;fill-opacity:1;stroke:#0f0000;stroke-width:0.69384199;stroke-miterlimit:4;stroke-dasharray:none;stroke-dashoffset:0;stroke-opacity:1"
           id="rect4255-37-0"
           width="8.5855074"
           height="7.761044"
           x="320.08765"
           y="571.62201" />
        <rect
           style="fill:#dd005a;fill-opacity:1;stroke:#0f0000;stroke-width:0.69384199;stroke-miterlimit:4;stroke-dasharray:none;stroke-dashoffset:0;stroke-opacity:1"
           id="rect4255-37-62"
           width="8.5855074"
           height="7.761044"
           x="399.99057"
           y="537.16388" />
        <rect
           style="fill:#dd005a;fill-opacity:1;stroke:#0f0000;stroke-width:0.69384199;stroke-miterlimit:4;stroke-dasharray:none;stroke-dashoffset:0;stroke-opacity:1"
           id="rect4255-37-61"
           width="8.5855074"
           height="7.761044"
           x="446.93353"
           y="492.71786" />
      </g>
      <text
         xml:space="preserve"
         style="font-style:normal;font-variant:normal;font-weight:normal;font-stretch:normal;font-size:20.49167633px;line-height:125%;font-family:'Laura Claire';-inkscape-font-specification:'Laura Claire, Normal';text-align:start;letter-spacing:0px;word-spacing:0px;writing-mode:lr-tb;text-anchor:start;fill:#000000;fill-opacity:1;stroke:none;stroke-width:1px;stroke-linecap:butt;stroke-linejoin:miter;stroke-opacity:1"
         x="139.69745"
         y="224.65639"
         id="text5521"
         sodipodi:linespacing="125%"><tspan
           sodipodi:role="line"
           id="tspan5523"
           x="139.69745"
           y="224.65639"
           style="font-style:normal;font-variant:normal;font-weight:normal;font-stretch:normal;font-family:Arial;-inkscape-font-specification:Arial">Depot</tspan></text>
      <text
         xml:space="preserve"
         style="font-style:normal;font-variant:normal;font-weight:normal;font-stretch:normal;font-size:20.4112587px;line-height:125%;font-family:'Laura Claire';-inkscape-font-specification:'Laura Claire, Normal';text-align:start;letter-spacing:0px;word-spacing:0px;writing-mode:lr-tb;text-anchor:start;fill:#000000;fill-opacity:1;stroke:none;stroke-width:1px;stroke-linecap:butt;stroke-linejoin:miter;stroke-opacity:1"
         x="112.10496"
         y="485.39746"
         id="text5531"
         sodipodi:linespacing="125%"><tspan
           sodipodi:role="line"
           id="tspan5533"
           x="112.10496"
           y="485.39746"
           style="font-style:normal;font-variant:normal;font-weight:normal;font-stretch:normal;font-family:Arial;-inkscape-font-specification:Arial">Rendezvous</tspan><tspan
           sodipodi:role="line"
           x="112.10496"
           y="510.91153"
           id="tspan5535"
           style="font-style:normal;font-variant:normal;font-weight:normal;font-stretch:normal;font-family:Arial;-inkscape-font-specification:Arial">     points</tspan></text>
      <text
         xml:space="preserve"
         style="font-style:normal;font-variant:normal;font-weight:normal;font-stretch:normal;font-size:30px;line-height:125%;font-family:'Laura Claire';-inkscape-font-specification:'Laura Claire, Normal';text-align:start;letter-spacing:0px;word-spacing:0px;writing-mode:lr-tb;text-anchor:start;fill:#000000;fill-opacity:1;stroke:none;stroke-width:1px;stroke-linecap:butt;stroke-linejoin:miter;stroke-opacity:1"
         x="584.77728"
         y="559.50879"
         id="text4358"
         sodipodi:linespacing="125%"><tspan
           sodipodi:role="line"
           id="tspan4360"
           x="584.77728"
           y="559.50879" /></text>
      <text
         xml:space="preserve"
         style="font-style:normal;font-variant:normal;font-weight:normal;font-stretch:normal;font-size:22.35802269px;line-height:125%;font-family:'Laura Claire';-inkscape-font-specification:'Laura Claire, Normal';text-align:start;letter-spacing:0px;word-spacing:0px;writing-mode:lr-tb;text-anchor:start;fill:#000000;fill-opacity:1;stroke:none;stroke-width:1px;stroke-linecap:butt;stroke-linejoin:miter;stroke-opacity:1"
         x="28.627563"
         y="366.56192"
         id="text4362"
         sodipodi:linespacing="125%"><tspan
           sodipodi:role="line"
           id="tspan4364"
           x="28.627563"
           y="366.56192"
           style="font-style:normal;font-variant:normal;font-weight:normal;font-stretch:normal;font-family:Arial;-inkscape-font-specification:Arial">Site</tspan></text>
      <ellipse
         style="opacity:0.95999995;fill:#d40000;fill-opacity:1;fill-rule:evenodd;stroke:#000000;stroke-width:1.24688148;stroke-linecap:butt;stroke-linejoin:round;stroke-miterlimit:4;stroke-dasharray:none;stroke-dashoffset:0;stroke-opacity:1"
         id="path4372"
         cx="445.14664"
         cy="333.23459"
         rx="4.8492308"
         ry="5.1798601" />
      <text
         xml:space="preserve"
         style="font-style:normal;font-variant:normal;font-weight:normal;font-stretch:normal;font-size:19.38074112px;line-height:125%;font-family:'Laura Claire';-inkscape-font-specification:'Laura Claire, Normal';text-align:start;letter-spacing:0px;word-spacing:0px;writing-mode:lr-tb;text-anchor:start;fill:#000000;fill-opacity:1;stroke:none;stroke-width:1px;stroke-linecap:butt;stroke-linejoin:miter;stroke-opacity:1"
         x="459.21738"
         y="316.98489"
         id="text4374"
         sodipodi:linespacing="125%"><tspan
           sodipodi:role="line"
           id="tspan4376"
           x="459.21738"
           y="316.98489"
           style="font-style:normal;font-variant:normal;font-weight:normal;font-stretch:normal;font-family:Arial;-inkscape-font-specification:Arial"> Fixed Truck </tspan><tspan
           sodipodi:role="line"
           x="459.21738"
           y="341.21082"
           id="tspan4378"
           style="font-style:normal;font-variant:normal;font-weight:normal;font-stretch:normal;font-family:Arial;-inkscape-font-specification:Arial">    Route</tspan></text>
    </g>
    <circle
       transform="matrix(1.4159317,0,0,1.4159317,-136.85979,-229.90765)"
       style="fill:#ff0000;fill-opacity:1;stroke:#f60000;stroke-width:0.80457515;stroke-miterlimit:4;stroke-dasharray:none;stroke-dashoffset:0;stroke-opacity:1"
       id="path3342-6-2"
       cx="213.7606"
       cy="339.72299"
       r="9.4894514" />
    <g
       id="g3504"
       transform="matrix(0.05309033,0.06229983,-0.06229983,0.05309033,279.44916,458.4036)"
       inkscape:transform-center-x="-2.9005442"
       inkscape:transform-center-y="-19.54399">
      <g
         id="g3462">
        <g
           id="g3464">
          <path
             id="path3466"
             d="m 226.764,375.35 c -28.249,0 -51.078,22.91 -51.078,51.16 0,28.166 22.829,51.078 51.078,51.078 28.249,0 51.078,-22.912 51.078,-51.078 -10e-4,-28.25 -22.829,-51.16 -51.078,-51.16 z m 0,76.699 c -14.125,0 -25.54,-11.498 -25.54,-25.541 0,-14.123 11.415,-25.539 25.54,-25.539 14.124,0 25.539,11.416 25.539,25.539 -0.001,14.043 -11.415,25.541 -25.539,25.541 z M 612,337.561 l 0,54.541 c 0,13.605 -11.029,24.635 -24.636,24.635 l -26.36,0 c -4.763,-32.684 -32.929,-57.812 -66.927,-57.812 -33.914,0 -62.082,25.129 -66.845,57.812 l -133.607,0 c -4.763,-32.684 -32.93,-57.812 -66.845,-57.812 -33.915,0 -62.082,25.129 -66.844,57.812 l -33.012,0 c -13.606,0 -24.635,-11.029 -24.635,-24.635 l 0,-54.541 509.711,0 0,0 z M 494.143,375.35 c -28.249,0 -51.16,22.91 -51.16,51.16 0,28.166 22.912,51.078 51.16,51.078 28.166,0 51.077,-22.912 51.077,-51.078 0,-28.25 -22.911,-51.16 -51.077,-51.16 z m 0,76.699 c -14.125,0 -25.539,-11.498 -25.539,-25.541 0,-14.123 11.414,-25.539 25.539,-25.539 14.042,0 25.539,11.416 25.539,25.539 0,14.043 -11.497,25.541 -25.539,25.541 z m 108.15,-169.412 -96.817,-95.751 c -6.159,-6.077 -14.453,-9.526 -23.076,-9.526 l -48.86,0 0,-18.313 c 0,-13.631 -11.004,-24.635 -24.635,-24.635 l -281.998,0 c -13.55,0 -24.635,11.005 -24.635,24.635 l 0,3.86 L 2.3,174.429 179.446,197.497 0,215.323 178.814,240.746 0,256.25 l 102.278,19.29 -0.007,48.403 509.712,0 0,-17.985 c 0,-8.787 -3.531,-17.162 -9.69,-23.321 z m -42.209,3.202 -93.697,0 c -2.135,0 -3.86,-1.724 -3.86,-3.859 l 0,-72.347 c 0,-2.135 1.725,-3.86 3.86,-3.86 l 17.82,0 c 0.985,0 1.971,0.411 2.71,1.068 l 75.796,72.347 c 2.544,2.381 0.819,6.651 -2.629,6.651 z"
             inkscape:connector-curvature="0" />
        </g>
      </g>
      <g
         id="g3468" />
      <g
         id="g3470" />
      <g
         id="g3472" />
      <g
         id="g3474" />
      <g
         id="g3476" />
      <g
         id="g3478" />
      <g
         id="g3480" />
      <g
         id="g3482" />
      <g
         id="g3484" />
      <g
         id="g3486" />
      <g
         id="g3488" />
      <g
         id="g3490" />
      <g
         id="g3492" />
      <g
         id="g3494" />
      <g
         id="g3496" />
    </g>
    <g
       id="g3668"
       transform="matrix(0.07295081,0,0,0.07295081,324.81976,453.30821)">
      <g
         id="g3616">
        <g
           id="g3618">
          <g
             id="g3620">
            <path
               id="path3622"
               d="m 111.25,222.803 c 12.77,0 25.305,-2.154 37.259,-6.403 3.903,-1.387 5.942,-5.676 4.556,-9.579 -1.388,-3.903 -5.678,-5.94 -9.579,-4.555 -10.337,3.674 -21.183,5.537 -32.235,5.537 -53.072,0 -96.25,-43.178 -96.25,-96.25 0,-53.072 43.178,-96.25 96.25,-96.25 53.072,0 96.25,43.178 96.25,96.25 0,10.754 -1.765,21.32 -5.244,31.404 -1.352,3.916 0.728,8.185 4.644,9.536 3.914,1.35 8.186,-0.728 9.536,-4.644 4.024,-11.662 6.064,-23.874 6.064,-36.297 0,-61.343 -49.906,-111.25 -111.25,-111.25 C 49.907,0.302 0,50.209 0,111.553 c 0,61.344 49.906,111.25 111.25,111.25 z"
               inkscape:connector-curvature="0" />
            <path
               id="path3624"
               d="m 207.314,317.675 c -3.909,1.37 -5.968,5.648 -4.599,9.558 3.576,10.211 5.39,20.917 5.39,31.82 0,53.072 -43.178,96.25 -96.25,96.25 -53.072,0 -96.25,-43.178 -96.25,-96.25 0,-53.072 43.178,-96.25 96.25,-96.25 10.9,0 21.605,1.813 31.82,5.39 3.912,1.369 8.188,-0.69 9.557,-4.6 1.369,-3.909 -0.69,-8.188 -4.6,-9.557 -11.812,-4.136 -24.185,-6.233 -36.777,-6.233 -61.344,0 -111.25,49.907 -111.25,111.25 0,61.343 49.906,111.25 111.25,111.25 61.344,0 111.25,-49.907 111.25,-111.25 0,-12.595 -2.097,-24.969 -6.233,-36.778 -1.369,-3.91 -5.648,-5.97 -9.558,-4.6 z"
               inkscape:connector-curvature="0" />
            <path
               id="path3626"
               d="m 359.355,247.803 c -12.593,0 -24.966,2.097 -36.777,6.233 -3.909,1.369 -5.969,5.648 -4.6,9.557 1.368,3.91 5.649,5.968 9.557,4.6 10.215,-3.577 20.92,-5.39 31.82,-5.39 53.072,0 96.25,43.178 96.25,96.25 0,53.072 -43.178,96.25 -96.25,96.25 -53.072,0 -96.25,-43.178 -96.25,-96.25 0,-10.9 1.813,-21.606 5.39,-31.82 1.369,-3.909 -0.69,-8.188 -4.6,-9.557 -3.91,-1.368 -8.188,0.691 -9.557,4.6 -4.137,11.812 -6.233,24.185 -6.233,36.777 0,61.343 49.906,111.25 111.25,111.25 61.344,0 111.25,-49.907 111.25,-111.25 0,-61.343 -49.906,-111.25 -111.25,-111.25 z"
               inkscape:connector-curvature="0" />
            <path
               id="path3628"
               d="m 263.896,152.93 c 3.909,-1.369 5.969,-5.648 4.6,-9.557 -3.576,-10.214 -5.39,-20.92 -5.39,-31.82 0,-53.072 43.178,-96.25 96.25,-96.25 53.072,0 96.25,43.178 96.25,96.25 0,53.072 -43.178,96.25 -96.25,96.25 -10.901,0 -21.607,-1.813 -31.82,-5.39 -3.909,-1.368 -8.188,0.691 -9.557,4.6 -1.369,3.91 0.689,8.188 4.6,9.558 11.81,4.136 24.184,6.233 36.777,6.233 61.344,0 111.25,-49.907 111.25,-111.25 0,-61.343 -49.907,-111.251 -111.251,-111.251 -61.344,0 -111.25,49.907 -111.25,111.25 0,12.592 2.097,24.966 6.233,36.777 1.369,3.91 5.649,5.97 9.558,4.6 z"
               inkscape:connector-curvature="0" />
            <path
               id="path3630"
               d="m 332.272,363.789 c 0.54,3.094 1.595,6.012 3.08,8.66 l -33.426,33.427 c -2.929,2.929 -2.929,7.678 0,10.606 1.465,1.464 3.385,2.197 5.304,2.197 1.919,0 3.839,-0.732 5.304,-2.197 l 33.426,-33.426 c 3.967,2.223 8.535,3.497 13.397,3.497 15.163,0 27.5,-12.336 27.5,-27.5 0,-4.862 -1.273,-9.43 -3.496,-13.397 l 33.427,-33.427 c 2.929,-2.929 2.929,-7.678 0,-10.606 -2.929,-2.929 -7.677,-2.929 -10.607,0 l -33.427,33.426 c -2.649,-1.484 -5.566,-2.54 -8.66,-3.08 l -82.101,-82.101 c 1.448,-4.601 2.231,-9.493 2.231,-14.565 0,-5.072 -0.784,-9.965 -2.232,-14.566 l 82.101,-82.101 c 3.094,-0.54 6.011,-1.595 8.66,-3.08 l 33.427,33.426 c 1.465,1.464 3.385,2.197 5.304,2.197 1.919,0 3.839,-0.732 5.304,-2.197 2.929,-2.929 2.929,-7.678 0,-10.606 l -33.427,-33.427 c 2.223,-3.967 3.496,-8.535 3.496,-13.397 0,-15.164 -12.337,-27.5 -27.5,-27.5 -4.862,0 -9.429,1.273 -13.397,3.496 L 312.534,54.122 c -2.93,-2.929 -7.678,-2.929 -10.607,0 -2.929,2.929 -2.929,7.678 0,10.606 l 33.426,33.427 c -1.484,2.649 -2.54,5.566 -3.08,8.66 l -82.101,82.101 c -4.601,-1.448 -9.493,-2.231 -14.565,-2.231 -5.072,0 -9.965,0.784 -14.565,2.231 l -82.101,-82.101 c -0.54,-3.094 -1.595,-6.011 -3.08,-8.66 l 33.427,-33.427 c 2.929,-2.929 2.929,-7.678 0,-10.606 -2.929,-2.929 -7.677,-2.929 -10.607,0 l -33.427,33.426 c -3.967,-2.223 -8.535,-3.496 -13.397,-3.496 -15.163,0 -27.5,12.336 -27.5,27.5 0,4.862 1.273,9.43 3.496,13.397 l -33.426,33.427 c -2.929,2.929 -2.929,7.678 0,10.606 1.465,1.464 3.385,2.197 5.304,2.197 1.919,0 3.839,-0.732 5.304,-2.197 l 33.426,-33.426 c 2.649,1.484 5.567,2.54 8.661,3.08 l 82.101,82.101 c -1.448,4.601 -2.232,9.493 -2.232,14.566 0,5.072 0.783,9.964 2.231,14.565 l -82.101,82.102 c -3.094,0.54 -6.012,1.596 -8.661,3.08 L 65.034,301.624 c -2.929,-2.929 -7.677,-2.929 -10.607,0 -2.929,2.929 -2.929,7.678 0,10.606 l 33.426,33.427 c -2.223,3.967 -3.496,8.535 -3.496,13.397 0,15.164 12.337,27.5 27.5,27.5 4.862,0 9.43,-1.273 13.397,-3.497 l 33.427,33.426 c 1.465,1.464 3.385,2.197 5.304,2.197 1.919,0 3.839,-0.732 5.304,-2.197 2.929,-2.929 2.929,-7.678 0,-10.606 L 135.862,372.45 c 1.484,-2.648 2.54,-5.565 3.079,-8.659 l 82.101,-82.102 c 4.601,1.448 9.493,2.232 14.566,2.232 5.073,0 9.965,-0.784 14.566,-2.232 l 82.098,82.1 z m 27.083,-17.236 c 3.434,0 6.547,1.393 8.809,3.642 2.299,2.311 3.691,5.425 3.691,8.858 0,6.892 -5.607,12.5 -12.5,12.5 -3.434,0 -6.547,-1.393 -8.809,-3.642 -2.299,-2.311 -3.691,-5.425 -3.691,-8.858 0,-6.893 5.607,-12.5 12.5,-12.5 z m -8.858,-243.808 c 2.311,-2.299 5.425,-3.691 8.858,-3.691 6.893,0 12.5,5.607 12.5,12.5 0,3.434 -1.393,6.547 -3.642,8.809 -2.311,2.299 -5.425,3.691 -8.858,3.691 -6.893,0 -12.5,-5.607 -12.5,-12.5 0,-3.434 1.393,-6.548 3.642,-8.809 z m -4.539,232.304 c -4.438,2.487 -8.119,6.167 -10.606,10.606 l -71.103,-71.104 c 4.057,-2.969 7.637,-6.549 10.606,-10.606 l 71.103,71.104 z M 335.352,124.951 c 2.487,4.438 6.168,8.119 10.606,10.606 l -71.103,71.103 c -2.969,-4.057 -6.549,-7.637 -10.606,-10.606 l 71.103,-71.103 z m -223.497,-0.898 c -3.434,0 -6.547,-1.393 -8.809,-3.642 -2.299,-2.311 -3.691,-5.425 -3.691,-8.858 0,-6.893 5.608,-12.5 12.5,-12.5 3.434,0 6.547,1.393 8.809,3.642 2.299,2.311 3.691,5.425 3.691,8.858 0,6.893 -5.607,12.5 -12.5,12.5 z m 13.398,11.503 c 4.438,-2.487 8.118,-6.167 10.605,-10.606 l 71.104,71.104 c -4.057,2.969 -7.637,6.549 -10.606,10.606 l -71.103,-71.104 z m -4.54,232.306 c -2.311,2.299 -5.425,3.691 -8.858,3.691 -6.892,0 -12.5,-5.608 -12.5,-12.5 0,-3.434 1.393,-6.547 3.642,-8.809 2.311,-2.299 5.425,-3.691 8.858,-3.691 6.893,0 12.5,5.607 12.5,12.5 0,3.434 -1.393,6.547 -3.642,8.809 z m 15.146,-22.206 c -2.487,-4.438 -6.168,-8.119 -10.606,-10.606 l 71.103,-71.104 c 2.969,4.057 6.549,7.637 10.606,10.606 l -71.103,71.104 z m 99.746,-76.736 c -18.536,0 -33.616,-15.081 -33.616,-33.617 0,-18.537 15.08,-33.617 33.616,-33.617 18.536,0 33.617,15.081 33.617,33.617 0,18.536 -15.081,33.617 -33.617,33.617 z"
               inkscape:connector-curvature="0" />
          </g>
        </g>
      </g>
      <g
         id="g3632" />
      <g
         id="g3634" />
      <g
         id="g3636" />
      <g
         id="g3638" />
      <g
         id="g3640" />
      <g
         id="g3642" />
      <g
         id="g3644" />
      <g
         id="g3646" />
      <g
         id="g3648" />
      <g
         id="g3650" />
      <g
         id="g3652" />
      <g
         id="g3654" />
      <g
         id="g3656" />
      <g
         id="g3658" />
      <g
         id="g3660" />
    </g>
  </g>
</svg>
