<?xml version="1.0" encoding="UTF-8" standalone="no"?>
<!-- Created with Inkscape (http://www.inkscape.org/) -->

<svg
   xmlns:dc="http://purl.org/dc/elements/1.1/"
   xmlns:cc="http://creativecommons.org/ns#"
   xmlns:rdf="http://www.w3.org/1999/02/22-rdf-syntax-ns#"
   xmlns:svg="http://www.w3.org/2000/svg"
   xmlns="http://www.w3.org/2000/svg"
   xmlns:sodipodi="http://sodipodi.sourceforge.net/DTD/sodipodi-0.dtd"
   xmlns:inkscape="http://www.inkscape.org/namespaces/inkscape"
   width="210mm"
   height="297mm"
   viewBox="0 0 744.09448819 1052.3622047"
   id="svg2"
   version="1.1"
   inkscape:version="0.91 r13725"
   sodipodi:docname="segment_horsefly.svg">
  <defs
     id="defs4" />
  <sodipodi:namedview
     id="base"
     pagecolor="#ffffff"
     bordercolor="#666666"
     borderopacity="1.0"
     inkscape:pageopacity="0.0"
     inkscape:pageshadow="2"
     inkscape:zoom="2.6218194"
     inkscape:cx="140.74464"
     inkscape:cy="526.81289"
     inkscape:document-units="px"
     inkscape:current-layer="layer1"
     showgrid="false"
     inkscape:window-width="1278"
     inkscape:window-height="1022"
     inkscape:window-x="0"
     inkscape:window-y="0"
     inkscape:window-maximized="0" />
  <metadata
     id="metadata7">
    <rdf:RDF>
      <cc:Work
         rdf:about="">
        <dc:format>image/svg+xml</dc:format>
        <dc:type
           rdf:resource="http://purl.org/dc/dcmitype/StillImage" />
        <dc:title></dc:title>
      </cc:Work>
    </rdf:RDF>
  </metadata>
  <g
     inkscape:label="Layer 1"
     inkscape:groupmode="layer"
     id="layer1">
    <path
       style="fill:none;fill-rule:evenodd;stroke:#f26262;stroke-width:2.0999999;stroke-linecap:butt;stroke-linejoin:miter;stroke-miterlimit:4;stroke-dasharray:none;stroke-opacity:1"
       d="m 97.142857,565.21935 479.999993,0"
       id="path4174"
       inkscape:connector-curvature="0"
       sodipodi:nodetypes="cc" />
    <circle
       style="fill:#000000;fill-opacity:1;stroke:#008900;stroke-width:0;stroke-miterlimit:4;stroke-dasharray:none;stroke-dashoffset:0;stroke-opacity:1"
       id="path4176"
       cx="171.55112"
       cy="305.34192"
       r="5.1225557" />
    <circle
       style="fill:#000000;fill-opacity:1;stroke:#008900;stroke-width:0;stroke-miterlimit:4;stroke-dasharray:none;stroke-dashoffset:0;stroke-opacity:1"
       id="path4176-1"
       cx="224.75894"
       cy="346.77066"
       r="5.1225557" />
    <circle
       style="fill:#000000;fill-opacity:1;stroke:#008900;stroke-width:0;stroke-miterlimit:4;stroke-dasharray:none;stroke-dashoffset:0;stroke-opacity:1"
       id="path4176-2"
       cx="364.66507"
       cy="358.89249"
       r="5.1225557" />
    <circle
       style="fill:#000000;fill-opacity:1;stroke:#008900;stroke-width:0;stroke-miterlimit:4;stroke-dasharray:none;stroke-dashoffset:0;stroke-opacity:1"
       id="path4176-7"
       cx="389.91888"
       cy="289.19196"
       r="5.1225557" />
    <circle
       style="fill:#000000;fill-opacity:1;stroke:#008900;stroke-width:0;stroke-miterlimit:4;stroke-dasharray:none;stroke-dashoffset:0;stroke-opacity:1"
       id="path4176-0"
       cx="465.17526"
       cy="393.74274"
       r="5.1225557" />
    <circle
       style="fill:#000000;fill-opacity:1;stroke:#008900;stroke-width:0;stroke-miterlimit:4;stroke-dasharray:none;stroke-dashoffset:0;stroke-opacity:1"
       id="path4176-9"
       cx="558.61438"
       cy="457.88742"
       r="5.1225557" />
    <circle
       style="fill:#000000;fill-opacity:1;stroke:#008900;stroke-width:0;stroke-miterlimit:4;stroke-dasharray:none;stroke-dashoffset:0;stroke-opacity:1"
       id="path4176-3"
       cx="222.23355"
       cy="487.68692"
       r="5.1225557" />
    <circle
       style="fill:#000000;fill-opacity:1;stroke:#008900;stroke-width:0;stroke-miterlimit:4;stroke-dasharray:none;stroke-dashoffset:0;stroke-opacity:1"
       id="path4176-6"
       cx="559.62451"
       cy="330.60822"
       r="5.1225557" />
    <circle
       style="fill:#d20000;fill-opacity:1;stroke:#008900;stroke-width:0;stroke-miterlimit:4;stroke-dasharray:none;stroke-dashoffset:0;stroke-opacity:1"
       id="path4176-06"
       cx="96.428574"
       cy="565.2193"
       r="10.836837" />
    <path
       style="fill:none;fill-rule:evenodd;stroke:#00a100;stroke-width:2.8;stroke-linecap:butt;stroke-linejoin:miter;stroke-miterlimit:4;stroke-dasharray:5.6,2.8;stroke-dashoffset:0;stroke-opacity:1"
       d="m 102.02541,555.36715 69.32172,-245.21453 32.54043,255.0307 20.96067,-213.64726 56.82108,213.39473 -55.10562,-73.64704 108.80696,74.18493 1.20703,-0.58685 27.83486,-200.93859 26.01142,201.2729 31.8198,-37.88071 -9.21764,37.75444 -21.84455,-271.09969 54.80078,271.4785 19.3823,-166.67517 14.96289,166.29636 77.78175,-229.80971 -50.00256,229.68344 49.52549,-102.34403 -17.70568,101.83896"
       id="path4286"
       inkscape:connector-curvature="0"
       sodipodi:nodetypes="cccccccccccccccccccc" />
    <circle
       style="fill:#000000;fill-opacity:1;stroke:#008900;stroke-width:0;stroke-miterlimit:4;stroke-dasharray:none;stroke-dashoffset:0;stroke-opacity:1"
       id="path4176-3-2"
       cx="424.55878"
       cy="522.64008"
       r="5.1225557" />
    <text
       xml:space="preserve"
       style="font-style:normal;font-variant:normal;font-weight:normal;font-stretch:normal;font-size:22.28385544px;line-height:125%;font-family:'Laura Claire';-inkscape-font-specification:'Laura Claire, Normal';text-align:start;letter-spacing:0px;word-spacing:0px;writing-mode:lr-tb;text-anchor:start;fill:#000000;fill-opacity:1;stroke:none;stroke-width:1px;stroke-linecap:butt;stroke-linejoin:miter;stroke-opacity:1"
       x="61.587246"
       y="603.7132"
       id="text4869"
       sodipodi:linespacing="125%"><tspan
         sodipodi:role="line"
         id="tspan4871"
         x="61.587246"
         y="603.7132"
         style="font-style:normal;font-variant:normal;font-weight:normal;font-stretch:normal;font-family:Arial;-inkscape-font-specification:Arial">Depot</tspan></text>
    <text
       xml:space="preserve"
       style="font-style:normal;font-variant:normal;font-weight:normal;font-stretch:normal;font-size:19.81566429px;line-height:125%;font-family:'Laura Claire';-inkscape-font-specification:'Laura Claire, Normal';text-align:start;letter-spacing:0px;word-spacing:0px;writing-mode:lr-tb;text-anchor:start;fill:#000000;fill-opacity:1;stroke:none;stroke-width:1px;stroke-linecap:butt;stroke-linejoin:miter;stroke-opacity:1"
       x="452.00568"
       y="374.18634"
       id="text4873"
       sodipodi:linespacing="125%"><tspan
         sodipodi:role="line"
         id="tspan4875"
         x="452.00568"
         y="374.18634"
         style="font-style:normal;font-variant:normal;font-weight:normal;font-stretch:normal;font-family:Arial;-inkscape-font-specification:Arial">Site</tspan></text>
    <rect
       style="fill:#d20000;fill-opacity:1;stroke:#00a100;stroke-width:0;stroke-miterlimit:4;stroke-dasharray:none;stroke-dashoffset:0;stroke-opacity:1"
       id="rect4879"
       width="8.5714302"
       height="8.5714302"
       x="198.75"
       y="560.57648" />
    <rect
       style="fill:#d20000;fill-opacity:1;stroke:#00a100;stroke-width:0;stroke-miterlimit:4;stroke-dasharray:none;stroke-dashoffset:0;stroke-opacity:1"
       id="rect4879-6"
       width="8.5714302"
       height="8.5714302"
       x="276.42856"
       y="561.29077" />
    <rect
       style="fill:#d20000;fill-opacity:1;stroke:#00a100;stroke-width:0;stroke-miterlimit:4;stroke-dasharray:none;stroke-dashoffset:0;stroke-opacity:1"
       id="rect4879-1"
       width="8.5714302"
       height="8.5714302"
       x="332.5"
       y="561.29077" />
    <rect
       style="fill:#d20000;fill-opacity:1;stroke:#00a100;stroke-width:0;stroke-miterlimit:4;stroke-dasharray:none;stroke-dashoffset:0;stroke-opacity:1"
       id="rect4879-8"
       width="8.5714302"
       height="8.5714302"
       x="385.35715"
       y="560.93365" />
    <rect
       style="fill:#d20000;fill-opacity:1;stroke:#00a100;stroke-width:0;stroke-miterlimit:4;stroke-dasharray:none;stroke-dashoffset:0;stroke-opacity:1"
       id="rect4879-7"
       width="8.5714302"
       height="8.5714302"
       x="408.21429"
       y="560.93359" />
    <rect
       style="fill:#d20000;fill-opacity:1;stroke:#00a100;stroke-width:0;stroke-miterlimit:4;stroke-dasharray:none;stroke-dashoffset:0;stroke-opacity:1"
       id="rect4879-9"
       width="8.5714302"
       height="8.5714302"
       x="441.42856"
       y="560.21936" />
    <rect
       style="fill:#d20000;fill-opacity:1;stroke:#00a100;stroke-width:0;stroke-miterlimit:4;stroke-dasharray:none;stroke-dashoffset:0;stroke-opacity:1"
       id="rect4879-2"
       width="8.5714302"
       height="8.5714302"
       x="475.71429"
       y="560.93365" />
    <rect
       style="fill:#d20000;fill-opacity:1;stroke:#00a100;stroke-width:0;stroke-miterlimit:4;stroke-dasharray:none;stroke-dashoffset:0;stroke-opacity:1"
       id="rect4879-0"
       width="8.5714302"
       height="8.5714302"
       x="504.64285"
       y="560.2193" />
    <rect
       style="fill:#d20000;fill-opacity:1;stroke:#00a100;stroke-width:0;stroke-miterlimit:4;stroke-dasharray:none;stroke-dashoffset:0;stroke-opacity:1"
       id="rect4879-23"
       width="8.5714302"
       height="8.5714302"
       x="534.64282"
       y="560.57654" />
    <path
       sodipodi:type="star"
       style="fill:#000000;fill-opacity:1;stroke:#008900;stroke-width:0;stroke-miterlimit:4;stroke-dasharray:none;stroke-dashoffset:0;stroke-opacity:1"
       id="path5299-5"
       sodipodi:sides="3"
       sodipodi:cx="608.57141"
       sodipodi:cy="139.50507"
       sodipodi:r1="18.294641"
       sodipodi:r2="9.1473207"
       sodipodi:arg1="0.89605538"
       sodipodi:arg2="1.9432529"
       inkscape:flatsided="false"
       inkscape:rounded="0"
       inkscape:randomized="0"
       d="m 619.99998,153.79078 -14.75732,-5.76557 -14.75733,-5.76557 12.37179,-9.89743 12.3718,-9.89744 2.38553,15.66301 z"
       inkscape:transform-center-x="2.2934728"
       inkscape:transform-center-y="11.63866"
       transform="matrix(0.35456731,-0.14585161,-0.03257207,0.56940541,-43.163199,330.47422)" />
    <path
       sodipodi:type="star"
       style="fill:#000000;fill-opacity:1;stroke:#008900;stroke-width:0;stroke-miterlimit:4;stroke-dasharray:none;stroke-dashoffset:0;stroke-opacity:1"
       id="path5299-5-3"
       sodipodi:sides="3"
       sodipodi:cx="608.57141"
       sodipodi:cy="139.50507"
       sodipodi:r1="18.294641"
       sodipodi:r2="9.1473207"
       sodipodi:arg1="0.89605538"
       sodipodi:arg2="1.9432529"
       inkscape:flatsided="false"
       inkscape:rounded="0"
       inkscape:randomized="0"
       d="m 619.99998,153.79078 -14.75732,-5.76557 -14.75733,-5.76557 12.37179,-9.89743 12.3718,-9.89744 2.38553,15.66301 z"
       inkscape:transform-center-x="5.0548219"
       inkscape:transform-center-y="-10.725031"
       transform="matrix(-0.27361627,0.26856062,-0.18410061,-0.53980591,393.00695,461.25091)" />
    <path
       sodipodi:type="star"
       style="fill:#000000;fill-opacity:1;stroke:#008900;stroke-width:0;stroke-miterlimit:4;stroke-dasharray:none;stroke-dashoffset:0;stroke-opacity:1"
       id="path5299-5-6"
       sodipodi:sides="3"
       sodipodi:cx="608.57141"
       sodipodi:cy="139.50507"
       sodipodi:r1="18.294641"
       sodipodi:r2="9.1473207"
       sodipodi:arg1="0.89605538"
       sodipodi:arg2="1.9432529"
       inkscape:flatsided="false"
       inkscape:rounded="0"
       inkscape:randomized="0"
       d="m 619.99998,153.79078 -14.75732,-5.76557 -14.75733,-5.76557 12.37179,-9.89743 12.3718,-9.89744 2.38553,15.66301 z"
       inkscape:transform-center-x="0.65829569"
       inkscape:transform-center-y="11.390301"
       transform="matrix(0.34083935,-0.175554,0.01609916,0.57010901,13.419181,389.14186)" />
    <path
       sodipodi:type="star"
       style="fill:#000000;fill-opacity:1;stroke:#008900;stroke-width:0;stroke-miterlimit:4;stroke-dasharray:none;stroke-dashoffset:0;stroke-opacity:1"
       id="path5299-5-7"
       sodipodi:sides="3"
       sodipodi:cx="608.57141"
       sodipodi:cy="139.50507"
       sodipodi:r1="18.294641"
       sodipodi:r2="9.1473207"
       sodipodi:arg1="0.89605538"
       sodipodi:arg2="1.9432529"
       inkscape:flatsided="false"
       inkscape:rounded="0"
       inkscape:randomized="0"
       d="m 619.99998,153.79078 -14.75732,-5.76557 -14.75733,-5.76557 12.37179,-9.89743 12.3718,-9.89744 2.38553,15.66301 z"
       inkscape:transform-center-x="7.6947311"
       inkscape:transform-center-y="-10.390609"
       transform="matrix(-0.2316946,0.30546405,-0.2605742,-0.50733081,455.6485,435.42078)" />
    <path
       sodipodi:type="star"
       style="fill:#000000;fill-opacity:1;stroke:#008900;stroke-width:0;stroke-miterlimit:4;stroke-dasharray:none;stroke-dashoffset:0;stroke-opacity:1"
       id="path5299-5-5"
       sodipodi:sides="3"
       sodipodi:cx="608.57141"
       sodipodi:cy="139.50507"
       sodipodi:r1="18.294641"
       sodipodi:r2="9.1473207"
       sodipodi:arg1="0.89605538"
       sodipodi:arg2="1.9432529"
       inkscape:flatsided="false"
       inkscape:rounded="0"
       inkscape:randomized="0"
       d="m 619.99998,153.79078 -14.75732,-5.76557 -14.75733,-5.76557 12.37179,-9.89743 12.3718,-9.89744 2.38553,15.66301 z"
       inkscape:transform-center-x="-10.750593"
       inkscape:transform-center-y="8.4211765"
       transform="matrix(0.09676737,-0.37098079,0.43527847,0.36853239,112.84987,674.01363)" />
    <path
       sodipodi:type="star"
       style="fill:#000000;fill-opacity:1;stroke:#008900;stroke-width:0;stroke-miterlimit:4;stroke-dasharray:none;stroke-dashoffset:0;stroke-opacity:1"
       id="path5299-5-35"
       sodipodi:sides="3"
       sodipodi:cx="608.57141"
       sodipodi:cy="139.50507"
       sodipodi:r1="18.294641"
       sodipodi:r2="9.1473207"
       sodipodi:arg1="0.89605538"
       sodipodi:arg2="1.9432529"
       inkscape:flatsided="false"
       inkscape:rounded="0"
       inkscape:randomized="0"
       d="m 619.99998,153.79078 -14.75732,-5.76557 -14.75733,-5.76557 12.37179,-9.89743 12.3718,-9.89744 2.38553,15.66301 z"
       inkscape:transform-center-x="11.546087"
       inkscape:transform-center-y="-6.8930778"
       transform="matrix(-0.02082802,0.38282746,-0.50003877,-0.27430766,406.03662,361.81718)" />
    <path
       sodipodi:type="star"
       style="fill:#000000;fill-opacity:1;stroke:#008900;stroke-width:0;stroke-miterlimit:4;stroke-dasharray:none;stroke-dashoffset:0;stroke-opacity:1"
       id="path5299-5-62"
       sodipodi:sides="3"
       sodipodi:cx="608.57141"
       sodipodi:cy="139.50507"
       sodipodi:r1="18.294641"
       sodipodi:r2="9.1473207"
       sodipodi:arg1="0.89605538"
       sodipodi:arg2="1.9432529"
       inkscape:flatsided="false"
       inkscape:rounded="0"
       inkscape:randomized="0"
       d="m 619.99998,153.79078 -14.75732,-5.76557 -14.75733,-5.76557 12.37179,-9.89743 12.3718,-9.89744 2.38553,15.66301 z"
       inkscape:transform-center-x="0.38097686"
       inkscape:transform-center-y="11.340047"
       transform="matrix(0.33826948,-0.18045616,0.02432775,0.56981718,153.25015,405.50907)" />
    <path
       sodipodi:type="star"
       style="fill:#000000;fill-opacity:1;stroke:#008900;stroke-width:0;stroke-miterlimit:4;stroke-dasharray:none;stroke-dashoffset:0;stroke-opacity:1"
       id="path5299-5-9"
       sodipodi:sides="3"
       sodipodi:cx="608.57141"
       sodipodi:cy="139.50507"
       sodipodi:r1="18.294641"
       sodipodi:r2="9.1473207"
       sodipodi:arg1="0.89605538"
       sodipodi:arg2="1.9432529"
       inkscape:flatsided="false"
       inkscape:rounded="0"
       inkscape:randomized="0"
       d="m 619.99998,153.79078 -14.75732,-5.76557 -14.75733,-5.76557 12.37179,-9.89743 12.3718,-9.89744 2.38553,15.66301 z"
       inkscape:transform-center-x="4.447208"
       inkscape:transform-center-y="-10.768872"
       transform="matrix(-0.28223357,0.25948966,-0.16638899,-0.54552558,583.4829,467.43263)" />
    <path
       sodipodi:type="star"
       style="fill:#000000;fill-opacity:1;stroke:#008900;stroke-width:0;stroke-miterlimit:4;stroke-dasharray:none;stroke-dashoffset:0;stroke-opacity:1"
       id="path5299-5-1"
       sodipodi:sides="3"
       sodipodi:cx="608.57141"
       sodipodi:cy="139.50507"
       sodipodi:r1="18.294641"
       sodipodi:r2="9.1473207"
       sodipodi:arg1="0.89605538"
       sodipodi:arg2="1.9432529"
       inkscape:flatsided="false"
       inkscape:rounded="0"
       inkscape:randomized="0"
       d="m 619.99998,153.79078 -14.75732,-5.76557 -14.75733,-5.76557 12.37179,-9.89743 12.3718,-9.89744 2.38553,15.66301 z"
       inkscape:transform-center-x="5.4989913"
       inkscape:transform-center-y="8.2518174"
       transform="matrix(0.27775452,0.03700485,-0.22838279,0.3487056,277.29916,463.55055)" />
    <path
       sodipodi:type="star"
       style="fill:#000000;fill-opacity:1;stroke:#008900;stroke-width:0;stroke-miterlimit:4;stroke-dasharray:none;stroke-dashoffset:0;stroke-opacity:1"
       id="path5299-5-2"
       sodipodi:sides="3"
       sodipodi:cx="608.57141"
       sodipodi:cy="139.50507"
       sodipodi:r1="18.294641"
       sodipodi:r2="9.1473207"
       sodipodi:arg1="0.89605538"
       sodipodi:arg2="1.9432529"
       inkscape:flatsided="false"
       inkscape:rounded="0"
       inkscape:randomized="0"
       d="m 619.99998,153.79078 -14.75732,-5.76557 -14.75733,-5.76557 12.37179,-9.89743 12.3718,-9.89744 2.38553,15.66301 z"
       inkscape:transform-center-x="-2.685391"
       inkscape:transform-center-y="-7.2790547"
       transform="matrix(-0.22930528,0.05100275,0.0791681,-0.34036453,542.9307,572.78898)" />
    <path
       sodipodi:type="star"
       style="fill:#000000;fill-opacity:1;stroke:#008900;stroke-width:0;stroke-miterlimit:4;stroke-dasharray:none;stroke-dashoffset:0;stroke-opacity:1"
       id="path5299-5-70"
       sodipodi:sides="3"
       sodipodi:cx="608.57141"
       sodipodi:cy="139.50507"
       sodipodi:r1="18.294641"
       sodipodi:r2="9.1473207"
       sodipodi:arg1="0.89605538"
       sodipodi:arg2="1.9432529"
       inkscape:flatsided="false"
       inkscape:rounded="0"
       inkscape:randomized="0"
       d="m 619.99998,153.79078 -14.75732,-5.76557 -14.75733,-5.76557 12.37179,-9.89743 12.3718,-9.89744 2.38553,15.66301 z"
       inkscape:transform-center-x="0.83035351"
       inkscape:transform-center-y="11.420306"
       transform="matrix(0.34239872,-0.17249285,0.01099003,0.57023038,253.35076,434.55989)" />
    <path
       sodipodi:type="star"
       style="fill:#000000;fill-opacity:1;stroke:#008900;stroke-width:0;stroke-miterlimit:4;stroke-dasharray:none;stroke-dashoffset:0;stroke-opacity:1"
       id="path5299-5-93"
       sodipodi:sides="3"
       sodipodi:cx="608.57141"
       sodipodi:cy="139.50507"
       sodipodi:r1="18.294641"
       sodipodi:r2="9.1473207"
       sodipodi:arg1="0.89605538"
       sodipodi:arg2="1.9432529"
       inkscape:flatsided="false"
       inkscape:rounded="0"
       inkscape:randomized="0"
       d="m 619.99998,153.79078 -14.75732,-5.76557 -14.75733,-5.76557 12.37179,-9.89743 12.3718,-9.89744 2.38553,15.66301 z"
       inkscape:transform-center-x="4.6912088"
       inkscape:transform-center-y="-10.752688"
       transform="matrix(-0.27881724,0.26315701,-0.17350622,-0.54330383,672.61995,467.23234)" />
    <path
       sodipodi:type="star"
       style="fill:#000000;fill-opacity:1;stroke:#008900;stroke-width:0;stroke-miterlimit:4;stroke-dasharray:none;stroke-dashoffset:0;stroke-opacity:1"
       id="path5299-5-60"
       sodipodi:sides="3"
       sodipodi:cx="608.57141"
       sodipodi:cy="139.50507"
       sodipodi:r1="18.294641"
       sodipodi:r2="9.1473207"
       sodipodi:arg1="0.89605538"
       sodipodi:arg2="1.9432529"
       inkscape:flatsided="false"
       inkscape:rounded="0"
       inkscape:randomized="0"
       d="m 619.99998,153.79078 -14.75732,-5.76557 -14.75733,-5.76557 12.37179,-9.89743 12.3718,-9.89744 2.38553,15.66301 z"
       inkscape:transform-center-x="-3.85192"
       inkscape:transform-center-y="10.800499"
       transform="matrix(0.29032333,-0.25040574,0.1489995,0.55052939,193.98374,381.27834)" />
    <path
       sodipodi:type="star"
       style="fill:#000000;fill-opacity:1;stroke:#008900;stroke-width:0;stroke-miterlimit:4;stroke-dasharray:none;stroke-dashoffset:0;stroke-opacity:1"
       id="path5299-5-626"
       sodipodi:sides="3"
       sodipodi:cx="608.57141"
       sodipodi:cy="139.50507"
       sodipodi:r1="18.294641"
       sodipodi:r2="9.1473207"
       sodipodi:arg1="0.89605538"
       sodipodi:arg2="1.9432529"
       inkscape:flatsided="false"
       inkscape:rounded="0"
       inkscape:randomized="0"
       d="m 619.99998,153.79078 -14.75732,-5.76557 -14.75733,-5.76557 12.37179,-9.89743 12.3718,-9.89744 2.38553,15.66301 z"
       inkscape:transform-center-x="6.6843752"
       inkscape:transform-center-y="-10.547377"
       transform="matrix(-0.248635,0.29184123,-0.23140126,-0.52128391,625.839,443.79783)" />
    <path
       sodipodi:type="star"
       style="fill:#000000;fill-opacity:1;stroke:#008900;stroke-width:0;stroke-miterlimit:4;stroke-dasharray:none;stroke-dashoffset:0;stroke-opacity:1"
       id="path5299-5-18"
       sodipodi:sides="3"
       sodipodi:cx="608.57141"
       sodipodi:cy="139.50507"
       sodipodi:r1="18.294641"
       sodipodi:r2="9.1473207"
       sodipodi:arg1="0.89605538"
       sodipodi:arg2="1.9432529"
       inkscape:flatsided="false"
       inkscape:rounded="0"
       inkscape:randomized="0"
       d="m 619.99998,153.79078 -14.75732,-5.76557 -14.75733,-5.76557 12.37179,-9.89743 12.3718,-9.89744 2.38553,15.66301 z"
       inkscape:transform-center-x="2.2934728"
       inkscape:transform-center-y="11.63866"
       transform="matrix(0.35456731,-0.14585161,-0.03257207,0.56940541,343.80476,354.90788)" />
    <path
       sodipodi:type="star"
       style="fill:#000000;fill-opacity:1;stroke:#008900;stroke-width:0;stroke-miterlimit:4;stroke-dasharray:none;stroke-dashoffset:0;stroke-opacity:1"
       id="path5299-5-79"
       sodipodi:sides="3"
       sodipodi:cx="608.57141"
       sodipodi:cy="139.50507"
       sodipodi:r1="18.294641"
       sodipodi:r2="9.1473207"
       sodipodi:arg1="0.89605538"
       sodipodi:arg2="1.9432529"
       inkscape:flatsided="false"
       inkscape:rounded="0"
       inkscape:randomized="0"
       d="m 619.99998,153.79078 -14.75732,-5.76557 -14.75733,-5.76557 12.37179,-9.89743 12.3718,-9.89744 2.38553,15.66301 z"
       inkscape:transform-center-x="-3.0127428"
       inkscape:transform-center-y="-11.721624"
       transform="matrix(-0.35982523,0.13234982,0.05406429,-0.56776801,723.47093,548.04518)" />
    <path
       sodipodi:type="star"
       style="fill:#000000;fill-opacity:1;stroke:#008900;stroke-width:0;stroke-miterlimit:4;stroke-dasharray:none;stroke-dashoffset:0;stroke-opacity:1"
       id="path5299-5-20"
       sodipodi:sides="3"
       sodipodi:cx="608.57141"
       sodipodi:cy="139.50507"
       sodipodi:r1="18.294641"
       sodipodi:r2="9.1473207"
       sodipodi:arg1="0.89605538"
       sodipodi:arg2="1.9432529"
       inkscape:flatsided="false"
       inkscape:rounded="0"
       inkscape:randomized="0"
       d="m 619.99998,153.79078 -14.75732,-5.76557 -14.75733,-5.76557 12.37179,-9.89743 12.3718,-9.89744 2.38553,15.66301 z"
       inkscape:transform-center-x="4.8999419"
       inkscape:transform-center-y="11.884403"
       transform="matrix(0.37812253,-0.0633563,-0.1583729,0.54790646,345.17681,432.96349)" />
    <path
       sodipodi:type="star"
       style="fill:#000000;fill-opacity:1;stroke:#008900;stroke-width:0;stroke-miterlimit:4;stroke-dasharray:none;stroke-dashoffset:0;stroke-opacity:1"
       id="path5299-5-23"
       sodipodi:sides="3"
       sodipodi:cx="608.57141"
       sodipodi:cy="139.50507"
       sodipodi:r1="18.294641"
       sodipodi:r2="9.1473207"
       sodipodi:arg1="0.89605538"
       sodipodi:arg2="1.9432529"
       inkscape:flatsided="false"
       inkscape:rounded="0"
       inkscape:randomized="0"
       d="m 619.99998,153.79078 -14.75732,-5.76557 -14.75733,-5.76557 12.37179,-9.89743 12.3718,-9.89744 2.38553,15.66301 z"
       inkscape:transform-center-x="-1.6534988"
       inkscape:transform-center-y="-11.551275"
       transform="matrix(-0.34948595,0.15763958,0.01349203,-0.57017666,753.41462,532.38951)" />
    <g
       id="g3500"
       transform="matrix(0.07689131,0,0,0.07689131,127.07966,539.11147)">
      <g
         id="g3458">
        <g
           id="g3460">
          <path
             id="path3462"
             d="m 226.764,375.35 c -28.249,0 -51.078,22.91 -51.078,51.16 0,28.166 22.829,51.078 51.078,51.078 28.249,0 51.078,-22.912 51.078,-51.078 -10e-4,-28.25 -22.829,-51.16 -51.078,-51.16 z m 0,76.699 c -14.125,0 -25.54,-11.498 -25.54,-25.541 0,-14.123 11.415,-25.539 25.54,-25.539 14.124,0 25.539,11.416 25.539,25.539 -0.001,14.043 -11.415,25.541 -25.539,25.541 z M 612,337.561 l 0,54.541 c 0,13.605 -11.029,24.635 -24.636,24.635 l -26.36,0 c -4.763,-32.684 -32.929,-57.812 -66.927,-57.812 -33.914,0 -62.082,25.129 -66.845,57.812 l -133.607,0 c -4.763,-32.684 -32.93,-57.812 -66.845,-57.812 -33.915,0 -62.082,25.129 -66.844,57.812 l -33.012,0 c -13.606,0 -24.635,-11.029 -24.635,-24.635 l 0,-54.541 509.711,0 0,0 z M 494.143,375.35 c -28.249,0 -51.16,22.91 -51.16,51.16 0,28.166 22.912,51.078 51.16,51.078 28.166,0 51.077,-22.912 51.077,-51.078 0,-28.25 -22.911,-51.16 -51.077,-51.16 z m 0,76.699 c -14.125,0 -25.539,-11.498 -25.539,-25.541 0,-14.123 11.414,-25.539 25.539,-25.539 14.042,0 25.539,11.416 25.539,25.539 0,14.043 -11.497,25.541 -25.539,25.541 z m 108.15,-169.412 -96.817,-95.751 c -6.159,-6.077 -14.453,-9.526 -23.076,-9.526 l -48.86,0 0,-18.313 c 0,-13.631 -11.004,-24.635 -24.635,-24.635 l -281.998,0 c -13.55,0 -24.635,11.005 -24.635,24.635 l 0,3.86 L 2.3,174.429 179.446,197.497 0,215.323 178.814,240.746 0,256.25 l 102.278,19.29 -0.007,48.403 509.712,0 0,-17.985 c 0,-8.787 -3.531,-17.162 -9.69,-23.321 z m -42.209,3.202 -93.697,0 c -2.135,0 -3.86,-1.724 -3.86,-3.859 l 0,-72.347 c 0,-2.135 1.725,-3.86 3.86,-3.86 l 17.82,0 c 0.985,0 1.971,0.411 2.71,1.068 l 75.796,72.347 c 2.544,2.381 0.819,6.651 -2.629,6.651 z"
             inkscape:connector-curvature="0" />
        </g>
      </g>
      <g
         id="g3464" />
      <g
         id="g3466" />
      <g
         id="g3468" />
      <g
         id="g3470" />
      <g
         id="g3472" />
      <g
         id="g3474" />
      <g
         id="g3476" />
      <g
         id="g3478" />
      <g
         id="g3480" />
      <g
         id="g3482" />
      <g
         id="g3484" />
      <g
         id="g3486" />
      <g
         id="g3488" />
      <g
         id="g3490" />
      <g
         id="g3492" />
    </g>
    <g
       id="g3664"
       transform="matrix(0.07100165,0,0,0.07100165,119.27201,418.57003)">
      <g
         id="g3612">
        <g
           id="g3614">
          <g
             id="g3616">
            <path
               id="path3618"
               d="m 111.25,222.803 c 12.77,0 25.305,-2.154 37.259,-6.403 3.903,-1.387 5.942,-5.676 4.556,-9.579 -1.388,-3.903 -5.678,-5.94 -9.579,-4.555 -10.337,3.674 -21.183,5.537 -32.235,5.537 -53.072,0 -96.25,-43.178 -96.25,-96.25 0,-53.072 43.178,-96.25 96.25,-96.25 53.072,0 96.25,43.178 96.25,96.25 0,10.754 -1.765,21.32 -5.244,31.404 -1.352,3.916 0.728,8.185 4.644,9.536 3.914,1.35 8.186,-0.728 9.536,-4.644 4.024,-11.662 6.064,-23.874 6.064,-36.297 0,-61.343 -49.906,-111.25 -111.25,-111.25 C 49.907,0.302 0,50.209 0,111.553 c 0,61.344 49.906,111.25 111.25,111.25 z"
               inkscape:connector-curvature="0" />
            <path
               id="path3620"
               d="m 207.314,317.675 c -3.909,1.37 -5.968,5.648 -4.599,9.558 3.576,10.211 5.39,20.917 5.39,31.82 0,53.072 -43.178,96.25 -96.25,96.25 -53.072,0 -96.25,-43.178 -96.25,-96.25 0,-53.072 43.178,-96.25 96.25,-96.25 10.9,0 21.605,1.813 31.82,5.39 3.912,1.369 8.188,-0.69 9.557,-4.6 1.369,-3.909 -0.69,-8.188 -4.6,-9.557 -11.812,-4.136 -24.185,-6.233 -36.777,-6.233 -61.344,0 -111.25,49.907 -111.25,111.25 0,61.343 49.906,111.25 111.25,111.25 61.344,0 111.25,-49.907 111.25,-111.25 0,-12.595 -2.097,-24.969 -6.233,-36.778 -1.369,-3.91 -5.648,-5.97 -9.558,-4.6 z"
               inkscape:connector-curvature="0" />
            <path
               id="path3622"
               d="m 359.355,247.803 c -12.593,0 -24.966,2.097 -36.777,6.233 -3.909,1.369 -5.969,5.648 -4.6,9.557 1.368,3.91 5.649,5.968 9.557,4.6 10.215,-3.577 20.92,-5.39 31.82,-5.39 53.072,0 96.25,43.178 96.25,96.25 0,53.072 -43.178,96.25 -96.25,96.25 -53.072,0 -96.25,-43.178 -96.25,-96.25 0,-10.9 1.813,-21.606 5.39,-31.82 1.369,-3.909 -0.69,-8.188 -4.6,-9.557 -3.91,-1.368 -8.188,0.691 -9.557,4.6 -4.137,11.812 -6.233,24.185 -6.233,36.777 0,61.343 49.906,111.25 111.25,111.25 61.344,0 111.25,-49.907 111.25,-111.25 0,-61.343 -49.906,-111.25 -111.25,-111.25 z"
               inkscape:connector-curvature="0" />
            <path
               id="path3624"
               d="m 263.896,152.93 c 3.909,-1.369 5.969,-5.648 4.6,-9.557 -3.576,-10.214 -5.39,-20.92 -5.39,-31.82 0,-53.072 43.178,-96.25 96.25,-96.25 53.072,0 96.25,43.178 96.25,96.25 0,53.072 -43.178,96.25 -96.25,96.25 -10.901,0 -21.607,-1.813 -31.82,-5.39 -3.909,-1.368 -8.188,0.691 -9.557,4.6 -1.369,3.91 0.689,8.188 4.6,9.558 11.81,4.136 24.184,6.233 36.777,6.233 61.344,0 111.25,-49.907 111.25,-111.25 0,-61.343 -49.907,-111.251 -111.251,-111.251 -61.344,0 -111.25,49.907 -111.25,111.25 0,12.592 2.097,24.966 6.233,36.777 1.369,3.91 5.649,5.97 9.558,4.6 z"
               inkscape:connector-curvature="0" />
            <path
               id="path3626"
               d="m 332.272,363.789 c 0.54,3.094 1.595,6.012 3.08,8.66 l -33.426,33.427 c -2.929,2.929 -2.929,7.678 0,10.606 1.465,1.464 3.385,2.197 5.304,2.197 1.919,0 3.839,-0.732 5.304,-2.197 l 33.426,-33.426 c 3.967,2.223 8.535,3.497 13.397,3.497 15.163,0 27.5,-12.336 27.5,-27.5 0,-4.862 -1.273,-9.43 -3.496,-13.397 l 33.427,-33.427 c 2.929,-2.929 2.929,-7.678 0,-10.606 -2.929,-2.929 -7.677,-2.929 -10.607,0 l -33.427,33.426 c -2.649,-1.484 -5.566,-2.54 -8.66,-3.08 l -82.101,-82.101 c 1.448,-4.601 2.231,-9.493 2.231,-14.565 0,-5.072 -0.784,-9.965 -2.232,-14.566 l 82.101,-82.101 c 3.094,-0.54 6.011,-1.595 8.66,-3.08 l 33.427,33.426 c 1.465,1.464 3.385,2.197 5.304,2.197 1.919,0 3.839,-0.732 5.304,-2.197 2.929,-2.929 2.929,-7.678 0,-10.606 l -33.427,-33.427 c 2.223,-3.967 3.496,-8.535 3.496,-13.397 0,-15.164 -12.337,-27.5 -27.5,-27.5 -4.862,0 -9.429,1.273 -13.397,3.496 L 312.534,54.122 c -2.93,-2.929 -7.678,-2.929 -10.607,0 -2.929,2.929 -2.929,7.678 0,10.606 l 33.426,33.427 c -1.484,2.649 -2.54,5.566 -3.08,8.66 l -82.101,82.101 c -4.601,-1.448 -9.493,-2.231 -14.565,-2.231 -5.072,0 -9.965,0.784 -14.565,2.231 l -82.101,-82.101 c -0.54,-3.094 -1.595,-6.011 -3.08,-8.66 l 33.427,-33.427 c 2.929,-2.929 2.929,-7.678 0,-10.606 -2.929,-2.929 -7.677,-2.929 -10.607,0 l -33.427,33.426 c -3.967,-2.223 -8.535,-3.496 -13.397,-3.496 -15.163,0 -27.5,12.336 -27.5,27.5 0,4.862 1.273,9.43 3.496,13.397 l -33.426,33.427 c -2.929,2.929 -2.929,7.678 0,10.606 1.465,1.464 3.385,2.197 5.304,2.197 1.919,0 3.839,-0.732 5.304,-2.197 l 33.426,-33.426 c 2.649,1.484 5.567,2.54 8.661,3.08 l 82.101,82.101 c -1.448,4.601 -2.232,9.493 -2.232,14.566 0,5.072 0.783,9.964 2.231,14.565 l -82.101,82.102 c -3.094,0.54 -6.012,1.596 -8.661,3.08 L 65.034,301.624 c -2.929,-2.929 -7.677,-2.929 -10.607,0 -2.929,2.929 -2.929,7.678 0,10.606 l 33.426,33.427 c -2.223,3.967 -3.496,8.535 -3.496,13.397 0,15.164 12.337,27.5 27.5,27.5 4.862,0 9.43,-1.273 13.397,-3.497 l 33.427,33.426 c 1.465,1.464 3.385,2.197 5.304,2.197 1.919,0 3.839,-0.732 5.304,-2.197 2.929,-2.929 2.929,-7.678 0,-10.606 L 135.862,372.45 c 1.484,-2.648 2.54,-5.565 3.079,-8.659 l 82.101,-82.102 c 4.601,1.448 9.493,2.232 14.566,2.232 5.073,0 9.965,-0.784 14.566,-2.232 l 82.098,82.1 z m 27.083,-17.236 c 3.434,0 6.547,1.393 8.809,3.642 2.299,2.311 3.691,5.425 3.691,8.858 0,6.892 -5.607,12.5 -12.5,12.5 -3.434,0 -6.547,-1.393 -8.809,-3.642 -2.299,-2.311 -3.691,-5.425 -3.691,-8.858 0,-6.893 5.607,-12.5 12.5,-12.5 z m -8.858,-243.808 c 2.311,-2.299 5.425,-3.691 8.858,-3.691 6.893,0 12.5,5.607 12.5,12.5 0,3.434 -1.393,6.547 -3.642,8.809 -2.311,2.299 -5.425,3.691 -8.858,3.691 -6.893,0 -12.5,-5.607 -12.5,-12.5 0,-3.434 1.393,-6.548 3.642,-8.809 z m -4.539,232.304 c -4.438,2.487 -8.119,6.167 -10.606,10.606 l -71.103,-71.104 c 4.057,-2.969 7.637,-6.549 10.606,-10.606 l 71.103,71.104 z M 335.352,124.951 c 2.487,4.438 6.168,8.119 10.606,10.606 l -71.103,71.103 c -2.969,-4.057 -6.549,-7.637 -10.606,-10.606 l 71.103,-71.103 z m -223.497,-0.898 c -3.434,0 -6.547,-1.393 -8.809,-3.642 -2.299,-2.311 -3.691,-5.425 -3.691,-8.858 0,-6.893 5.608,-12.5 12.5,-12.5 3.434,0 6.547,1.393 8.809,3.642 2.299,2.311 3.691,5.425 3.691,8.858 0,6.893 -5.607,12.5 -12.5,12.5 z m 13.398,11.503 c 4.438,-2.487 8.118,-6.167 10.605,-10.606 l 71.104,71.104 c -4.057,2.969 -7.637,6.549 -10.606,10.606 l -71.103,-71.104 z m -4.54,232.306 c -2.311,2.299 -5.425,3.691 -8.858,3.691 -6.892,0 -12.5,-5.608 -12.5,-12.5 0,-3.434 1.393,-6.547 3.642,-8.809 2.311,-2.299 5.425,-3.691 8.858,-3.691 6.893,0 12.5,5.607 12.5,12.5 0,3.434 -1.393,6.547 -3.642,8.809 z m 15.146,-22.206 c -2.487,-4.438 -6.168,-8.119 -10.606,-10.606 l 71.103,-71.104 c 2.969,4.057 6.549,7.637 10.606,10.606 l -71.103,71.104 z m 99.746,-76.736 c -18.536,0 -33.616,-15.081 -33.616,-33.617 0,-18.537 15.08,-33.617 33.616,-33.617 18.536,0 33.617,15.081 33.617,33.617 0,18.536 -15.081,33.617 -33.617,33.617 z"
               inkscape:connector-curvature="0" />
          </g>
        </g>
      </g>
      <g
         id="g3628" />
      <g
         id="g3630" />
      <g
         id="g3632" />
      <g
         id="g3634" />
      <g
         id="g3636" />
      <g
         id="g3638" />
      <g
         id="g3640" />
      <g
         id="g3642" />
      <g
         id="g3644" />
      <g
         id="g3646" />
      <g
         id="g3648" />
      <g
         id="g3650" />
      <g
         id="g3652" />
      <g
         id="g3654" />
      <g
         id="g3656" />
    </g>
  </g>
</svg>
